<svg width="21" height="21" viewBox="0 0 21 21" fill="none" xmlns="http://www.w3.org/2000/svg">
<path d="M18.8333 0.166664C19.3589 0.166498 19.8651 0.365004 20.2505 0.72239C20.6359 1.07978 20.872 1.56963 20.9114 2.09375L20.9166 2.25V14.75C20.9168 15.2756 20.7182 15.7818 20.3609 16.1672C20.0035 16.5526 19.5136 16.7887 18.9895 16.8281L18.8333 16.8333H2.16659C1.64099 16.8335 1.13475 16.635 0.749348 16.2776C0.363951 15.9202 0.127881 15.4304 0.0884605 14.9062L0.0832521 14.75V2.25C0.0830857 1.7244 0.281592 1.21816 0.638978 0.83276C0.996364 0.447363 1.48622 0.211293 2.01034 0.171873L2.16659 0.166664H18.8333ZM18.8333 3.72291L11.6041 10.9521C11.3111 11.2447 10.914 11.409 10.4999 11.409C10.0859 11.409 9.68872 11.2447 9.39575 10.9521L2.16659 3.72291V14.75H18.8333V3.72291ZM17.3603 2.25H3.6395L10.4999 9.11041L17.3603 2.25Z" fill="#4475F2"/>
</svg>
