<svg width="20" height="20" viewBox="0 0 20 20" fill="none" xmlns="http://www.w3.org/2000/svg">
<path d="M8.00171 17.5217V11.46H5.68171C5.56125 11.46 5.44573 11.4122 5.36056 11.327C5.27539 11.2418 5.22754 11.1263 5.22754 11.0058V8.60834C5.22754 8.48789 5.27539 8.37237 5.36056 8.2872C5.44573 8.20203 5.56125 8.15418 5.68171 8.15418H7.99254V5.83334C7.93726 5.28297 8.00315 4.72717 8.18558 4.20497C8.36801 3.68278 8.66256 3.20686 9.04853 2.81064C9.43451 2.41442 9.90255 2.10751 10.4198 1.91146C10.937 1.71542 11.4909 1.635 12.0425 1.67584H13.9759C14.0975 1.6756 14.2143 1.72318 14.3011 1.8083C14.388 1.89342 14.4379 2.00926 14.44 2.13084V4.16084C14.4374 4.28221 14.3874 4.39771 14.3006 4.48261C14.2138 4.56751 14.0973 4.61504 13.9759 4.61501H12.7675C11.4625 4.61501 11.2117 5.23334 11.2117 6.14251V8.15334H14.3142C14.3787 8.15121 14.4429 8.16314 14.5023 8.18832C14.5617 8.2135 14.6149 8.25132 14.6582 8.29914C14.7015 8.34696 14.7338 8.40365 14.753 8.46525C14.7722 8.52685 14.7777 8.59189 14.7692 8.65584L14.4884 11.0625C14.4743 11.1727 14.4203 11.274 14.3366 11.3471C14.2529 11.4202 14.1453 11.4601 14.0342 11.4592H11.2309V17.5208C11.2324 17.6279 11.2125 17.7343 11.1722 17.8335C11.1319 17.9327 11.0721 18.0229 10.9964 18.0986C10.9206 18.1743 10.8304 18.234 10.7311 18.2742C10.6318 18.3144 10.5255 18.3342 10.4184 18.3325H8.80421C8.69795 18.3329 8.59269 18.312 8.49457 18.2712C8.39645 18.2305 8.30744 18.1705 8.23273 18.095C8.15803 18.0194 8.09912 17.9297 8.05945 17.8312C8.01979 17.7326 8.00016 17.6279 8.00171 17.5217Z" fill="white"/>
</svg>
