<svg width="43" height="31" viewBox="0 0 43 31" fill="none" xmlns="http://www.w3.org/2000/svg">
<path d="M21.3035 13.3413C22.115 13.3413 22.9185 13.2273 23.6682 13.0059C24.4179 12.7845 25.0991 12.4599 25.6729 12.0508C26.2466 11.6417 26.7018 11.1559 27.0123 10.6214C27.3229 10.0868 27.4827 9.51389 27.4827 8.93529C27.4827 8.35668 27.3229 7.78375 27.0123 7.24919C26.7018 6.71463 26.2466 6.22892 25.6729 5.81978C25.0991 5.41065 24.4179 5.0861 23.6682 4.86468C22.9185 4.64326 22.115 4.5293 21.3035 4.5293C19.6647 4.5293 18.0929 4.9935 16.9341 5.81978C15.7753 6.64607 15.1243 7.76675 15.1243 8.93529C15.1243 10.1038 15.7753 11.2245 16.9341 12.0508C18.0929 12.8771 19.6647 13.3413 21.3035 13.3413ZM5.41406 26.4334V27.1887H37.1929V26.4334C37.1929 23.6135 37.1929 22.2036 36.4232 21.126C35.7461 20.1786 34.6658 19.4083 33.3371 18.9256C31.8258 18.3767 29.8485 18.3767 25.8938 18.3767H16.7132C12.7585 18.3767 10.7812 18.3767 9.2699 18.9256C7.94116 19.4083 6.86086 20.1786 6.18382 21.126C5.41406 22.2036 5.41406 23.6135 5.41406 26.4334Z" stroke="#4475F2" stroke-width="2" stroke-linecap="round" stroke-linejoin="round"/>
</svg>
