 <svg width="20" height="20" viewBox="0 0 20 20" fill="none" xmlns="http://www.w3.org/2000/svg">
<path d="M7.34089 1.6665L4.32422 4.6915" stroke="white" stroke-width="1.2" stroke-miterlimit="10" stroke-linecap="round" stroke-linejoin="round"/>
<path d="M12.6582 1.6665L15.6749 4.6915" stroke="white" stroke-width="1.2" stroke-miterlimit="10" stroke-linecap="round" stroke-linejoin="round"/>
<path d="M1.66602 6.54167C1.66602 5 2.49102 4.875 3.51602 4.875H16.4827C17.5077 4.875 18.3327 5 18.3327 6.54167C18.3327 8.33333 17.5077 8.20833 16.4827 8.20833H3.51602C2.49102 8.20833 1.66602 8.33333 1.66602 6.54167Z" stroke="white" stroke-width="1.2"/>
<path d="M8.13281 11.6665V14.6248" stroke="white" stroke-width="1.2" stroke-linecap="round"/>

<path d="M11.9668 11.6665V14.6248" stroke="white" stroke-width="1.2" stroke-linecap="round"/>
 <path d="M2.91602 8.3335L4.09102 15.5335C4.35768 17.1502 4.99935 18.3335 7.38268 18.3335H12.4077C14.9994 18.3335 15.3827 17.2002 15.6827 15.6335L17.0827 8.3335" stroke="white" stroke-width="1.2" stroke-linecap="round"/>
</svg>
