<svg width="25" height="25" viewBox="0 0 25 25" fill="none" xmlns="http://www.w3.org/2000/svg">
<path d="M2.08341 5.48958L3.41675 4.16667L20.8334 21.5833L19.5105 22.9167L16.3022 19.7083C15.1042 20.1042 13.8334 20.3125 12.5001 20.3125C7.29175 20.3125 2.84383 17.0729 1.04175 12.5C1.7605 10.6667 2.90633 9.05208 4.36466 7.77083L2.08341 5.48958ZM12.5001 9.375C13.3289 9.375 14.1237 9.70424 14.7098 10.2903C15.2958 10.8763 15.6251 11.6712 15.6251 12.5C15.6256 12.8548 15.5657 13.207 15.448 13.5417L11.4584 9.55208C11.7931 9.43436 12.1453 9.37447 12.5001 9.375ZM12.5001 4.6875C17.7084 4.6875 22.1563 7.92708 23.9584 12.5C23.1078 14.6593 21.6632 16.5337 19.7917 17.9062L18.3126 16.4167C19.7532 15.4203 20.915 14.072 21.6876 12.5C20.8456 10.7811 19.5381 9.33295 17.914 8.32016C16.2899 7.30737 14.4141 6.77059 12.5001 6.77083C11.3647 6.77083 10.2501 6.95833 9.20842 7.29167L7.60425 5.69792C9.10425 5.05208 10.7605 4.6875 12.5001 4.6875ZM3.31258 12.5C4.15461 14.2189 5.46201 15.667 7.08616 16.6798C8.71031 17.6926 10.586 18.2294 12.5001 18.2292C13.2188 18.2292 13.9272 18.1563 14.5834 18.0104L12.2084 15.625C11.4836 15.5473 10.8072 15.2238 10.2917 14.7084C9.77625 14.1929 9.45277 13.5165 9.37508 12.7917L5.83341 9.23958C4.80216 10.125 3.93758 11.2292 3.31258 12.5Z" fill="#4475F2"/>
</svg>
